<svg class="img-fluid" id="outputsvg" xmlns="http://www.w3.org/2000/svg"
    style="transform: matrix(1.3, 0, 0, 1.3, 0, 0); transform-origin: 50% 50%; cursor: move; max-height: none; transition: transform 200ms ease-in-out;"
    width="250" height="50" viewBox="0 0 2500 500">
    <g id="l1F70GqOrZhC2DeLY15BnEb" fill="rgb(0,0,0)" style="transform: none;">
        <g style="transform: none;">
            <path id="pAbNvSmsJ"
                d="M0 250 l0 -250 1250 0 1250 0 0 250 0 250 -1250 0 -1250 0 0 -250z m981 45 c15 -27 20 -50 16 -67 -8 -30 -42 -74 -68 -89 -20 -10 -20 -9 -5 20 25 47 21 152 -6 187 l-22 28 31 -19 c18 -10 42 -37 54 -60z"></path>
        </g>
    </g>
    <g id="l1izWZIwyHm4aWF25DFaqAk" fill="rgb(255,255,255)" style="transform: none;">
        <g style="transform: none;">
            <path id="p1ElZpUsZR"
                d="M650 385 c21 -23 31 -25 108 -25 82 0 85 -1 118 -34 39 -39 45 -86 19 -136 -22 -43 -43 -50 -158 -50 -86 0 -108 3 -128 19 -13 10 -40 21 -60 25 -36 6 -71 32 -97 72 -11 16 -12 13 -7 -26 7 -54 23 -80 72 -117 l36 -28 181 0 c165 0 184 2 216 21 107 63 107 222 0 283 -34 19 -54 21 -181 21 l-142 0 23 -25z"></path>
            <path id="p1COBeZdSg"
                d="M532 340 c-6 -22 -12 -44 -12 -50 0 -17 26 -11 44 9 16 18 16 21 1 50 -8 17 -17 31 -18 31 -1 0 -8 -18 -15 -40z"></path>
            <path id="pTDswWNpG"
                d="M640 328 c0 -26 -5 -38 -14 -38 -8 0 -16 -14 -18 -37 -7 -49 -3 -52 28 -22 31 32 41 87 20 114 -15 19 -15 18 -16 -17z"></path>
            <path id="p11O0uiKEr"
                d="M1096 297 c-27 -20 -18 -88 14 -104 32 -16 128 -16 160 0 36 18 48 59 26 91 -15 24 -21 26 -99 26 -52 0 -90 -5 -101 -13z m152 -19 c50 -50 -52 -105 -109 -59 -21 16 -22 22 -11 45 10 23 17 26 60 26 26 0 53 -5 60 -12z"></path>
            <path id="p1GNWi8BhS"
                d="M1322 248 l3 -63 82 -3 c47 -2 92 2 104 8 26 14 22 51 -8 65 l-22 11 22 22 21 22 -31 0 c-19 0 -43 -10 -61 -25 -17 -14 -35 -25 -42 -25 -6 0 -8 -4 -5 -10 3 -5 26 -10 51 -10 32 0 44 -4 44 -15 0 -12 -13 -15 -55 -15 l-55 0 0 50 c0 47 -2 50 -25 50 -25 0 -26 -1 -23 -62z"></path>
            <path id="pFX4V0gac"
                d="M1552 248 c3 -57 5 -63 26 -66 21 -3 22 0 22 62 0 64 -1 66 -25 66 -25 0 -26 -1 -23 -62z"></path>
            <path id="p3nPZilaz"
                d="M1636 288 c-30 -43 -13 -86 41 -102 28 -9 39 10 13 24 -22 12 -27 49 -8 68 7 7 33 12 60 12 37 0 50 -4 58 -19 14 -27 13 -29 -16 -56 -21 -19 -23 -26 -12 -30 46 -18 100 44 77 88 -18 34 -28 37 -116 37 -73 0 -83 -2 -97 -22z"></path>
            <path id="pDVfj4wtT"
                d="M1870 250 c0 -45 4 -62 15 -66 27 -11 65 6 111 48 l44 41 0 -41 c0 -23 5 -44 10 -47 6 -4 10 18 10 59 0 64 -1 66 -26 66 -17 0 -44 -16 -78 -46 l-51 -47 -3 47 c-2 32 -7 46 -18 46 -11 0 -14 -14 -14 -60z"></path>
            <path id="p1EaEwJAtQ"
                d="M494 266 c-15 -17 -6 -34 26 -51 30 -15 64 -21 45 -7 -6 4 -22 21 -36 38 -18 22 -28 28 -35 20z"></path>
            <path id="pumObWnPU"
                d="M1724 226 c-8 -22 -1 -59 14 -64 8 -2 12 9 12 37 0 40 -15 55 -26 27z"></path>
        </g>
    </g>
</svg>